<?xml version="1.0" encoding="utf-8"?>
<!-- Generator: Adobe Illustrator 24.0.1, SVG Export Plug-In . SVG Version: 6.00 Build 0)  -->
<svg version="1.1" id="Layer_1" xmlns="http://www.w3.org/2000/svg" xmlns:xlink="http://www.w3.org/1999/xlink" x="0px" y="0px"
	 viewBox="0 0 1380.7 273.8" style="enable-background:new 0 0 1380.7 273.8;" xml:space="preserve">
<style type="text/css">
	.st0{fill:#FFFFFF;}
</style>
<title>ennoia_logo0</title>
<g id="Layer_2_1_">
	<g id="Type">
		<path class="st0" d="M227,207.1c-6.5,38.7-41.9,66.7-105.6,66.7C49.6,273.8,0,238.3,0,176.2c0-61.5,47.6-98.3,120.2-98.3
			c73.2,0,111,34.3,107.8,107H49.4c3.6,29.1,28.5,51.4,70.9,51.4c31.1,0,53.3-12,59.4-29.1H227z M51.7,156.5h127.7
			c-2.9-25.1-24.9-41-61.7-41C81.6,115.5,58.2,133.3,51.7,156.5z"/>
		<path class="st0" d="M481.1,155v114.5h-49V163.7c0-31.7-14.6-46.3-49.2-46.3c-33.9,0-61.3,19.6-69.6,40.8v111.2h-49V82.2h49v53.9
			c10-30.2,40.3-58.2,87-58.2C446.4,77.9,481.1,102,481.1,155z"/>
		<path class="st0" d="M742.2,155v114.5h-49V163.7c0-31.7-14.6-46.3-49.2-46.3c-33.9,0-61.3,19.6-69.6,40.8v111.2h-49V82.2h49v53.9
			c10-30.2,40.3-58.2,87-58.2C707.5,77.9,742.2,102,742.2,155z"/>
		<path class="st0" d="M777.7,176.2c0-63.2,48.5-98.3,119.4-98.3c70.4,0,118.4,35.1,118.4,98.3c0,63.6-48,97.6-118.4,97.6
			C826.2,273.8,777.7,239.8,777.7,176.2z M966,176.2c0-38.4-29.3-60.7-68.8-60.7s-69.8,22-69.8,60.7s29.8,60,69.8,60
			C936.2,236.2,966,215,966,176.2L966,176.2z"/>
		<path class="st0" d="M1108.1,43.1h-56.8V0h56.8V43.1z M1104.2,82.2v187.2h-49V82.2L1104.2,82.2z"/>
		<path class="st0" d="M1380.7,82.2v187.2h-45.5c0,0-3.5-25.9-3.5-48.3v-11.8c-10.4,34-37.7,64.3-87.6,64.3
			c-56,0-100.1-39.2-100.1-97.6c0-59.1,44.2-98.2,102.7-98.2c48.4,0,74.8,24.3,85,59.8V82.2H1380.7z M1331.7,176.1
			c0-38.5-27.9-60-71.8-60c-41.9,0-65.9,23.8-65.9,60s26.3,59.8,65.9,59.8C1304.2,235.8,1331.7,211.9,1331.7,176.1L1331.7,176.1z"/>
	</g>
</g>
</svg>
